<svg width="580" height="400" xmlns="http://www.w3.org/2000/svg">
 <!-- Created with Method Draw - http://github.com/duopixel/Method-Draw/ -->

 <g>
  <title>background</title>
  <rect fill="#ffffff" id="canvas_background" height="402" width="582" y="-1" x="-1"/>
 </g>
 <g>
  <title>Layer 1</title>
  <rect rx="5" id="svg_1" height="182" width="153" y="82.5" x="155.5" stroke-opacity="null" stroke-width="0" stroke="null" fill="#BBBBBB"/>
  <rect rx="5" id="svg_2" height="146" width="130" y="100.5" x="167.5" stroke-opacity="null" stroke-width="0" stroke="null" fill="#ffffff"/>
  <rect stroke="null" rx="4" id="svg_3" height="6" width="100.999999" y="108.5" x="182.5" stroke-opacity="null" stroke-width="0" fill="#DDDDDD"/>
  <rect stroke="null" rx="4" id="svg_4" height="70.000004" width="100.999999" y="118" x="182.5" stroke-opacity="null" stroke-width="0" fill="#DDDDDD"/>
  <rect stroke="null" rx="5" id="svg_5" height="18" width="47.999999" y="191.5" x="183.5" fill-opacity="null" stroke-opacity="null" stroke-width="0" fill="#DDDDDD"/>
  <rect stroke="null" rx="5" id="svg_6" height="18.000001" width="48.000003" y="191.5" x="234.999999" fill-opacity="null" stroke-opacity="null" stroke-width="0" fill="#DDDDDD"/>
  <line stroke-linecap="null" stroke-linejoin="null" id="svg_7" y2="319.5" x2="283.5" y1="305.5" x1="140.5" stroke-opacity="null" stroke="null" fill="none"/>
  <rect stroke="null" id="svg_9" height="6" width="47.000001" y="216.5" x="184.5" stroke-opacity="null" stroke-width="47" fill="#DDDDDD"/>
  <rect stroke="null" id="svg_10" height="6" width="47.000001" y="226" x="184.5" stroke-opacity="null" stroke-width="47" fill="#DDDDDD"/>
  <rect stroke="null" id="svg_11" height="6" width="47.000001" y="238" x="184.5" stroke-opacity="null" stroke-width="47" fill="#DDDDDD"/>
  <rect stroke="null" id="svg_12" height="6" width="47.000001" y="238" x="236" stroke-opacity="null" stroke-width="47" fill="#DDDDDD"/>
  <rect stroke="null" id="svg_13" height="6" width="47.000001" y="226" x="236" stroke-opacity="null" stroke-width="47" fill="#DDDDDD"/>
  <rect stroke="null" id="svg_14" height="6" width="47.000001" y="217" x="236" stroke-opacity="null" stroke-width="47" fill="#DDDDDD"/>
  <path id="svg_16" d="m225.5,91.5" opacity="0.5" stroke-opacity="null" stroke-width="47" stroke="null" fill="#000000"/>
  <rect stroke="null" rx="5" id="svg_17" height="111.999997" width="66.000003" y="192.5" x="281.5" stroke-opacity="null" stroke-width="0" fill="#BBBBBB"/>
  <rect stroke="null" rx="4" id="svg_18" height="77.999999" width="54.999999" y="207.500003" x="286.499998" stroke-opacity="null" stroke-width="0" fill="#ffffff"/>
  <rect stroke="null" id="svg_20" height="6" width="47.000001" y="277" x="291" stroke-opacity="null" stroke-width="0" fill="#DDDDDD"/>
  <rect stroke="null" id="svg_21" height="6" width="47.000001" y="268" x="291" stroke-opacity="null" stroke-width="0" fill="#DDDDDD"/>
  <rect stroke="null" id="svg_22" height="17.000001" width="47.000001" y="248" x="291" stroke-opacity="null" stroke-width="0" fill="#DDDDDD"/>
  <rect stroke="null" id="svg_23" height="30.000002" width="47.000001" y="213.999999" x="291" stroke-opacity="null" stroke-width="0" fill="#DDDDDD"/>
 </g>
</svg>